# Blender v3.0.1 OBJ File: 'krishka_stvolnoi_korobki.blend'
# www.blender.org
mtllib 17.1.mtl
o Cylinder_Cylinder.001
v -0.000334 0.122886 -1.334817
v -0.000334 0.135651 -1.333560
v -0.000334 0.183336 -1.244348
v -0.000334 0.086535 -1.214984
v -0.000334 0.076620 -1.315653
v -0.000334 0.183336 -1.294426
v -0.000334 0.135651 -1.205214
v -0.000334 0.057456 -1.269387
v -0.000334 0.147925 -1.329836
v -0.000334 0.177289 -1.233036
v -0.000334 0.076620 -1.223121
v -0.000334 0.086535 -1.323790
v -0.000334 0.187059 -1.282151
v -0.000334 0.122886 -1.203957
v -0.000334 0.058714 -1.282151
v -0.000334 0.159237 -1.323790
v -0.000334 0.169152 -1.223121
v -0.000334 0.068483 -1.233036
v -0.000334 0.097847 -1.329836
v -0.000334 0.110122 -1.333560
v -0.000334 0.188316 -1.269387
v -0.000334 0.187059 -1.256622
v -0.000334 0.110122 -1.205214
v -0.000334 0.097847 -1.208937
v -0.000334 0.062437 -1.294426
v -0.000334 0.068483 -1.305738
v -0.000334 0.169152 -1.315653
v -0.000334 0.177289 -1.305738
v -0.000334 0.159237 -1.214984
v -0.000334 0.147925 -1.208937
v -0.000334 0.062437 -1.244348
v -0.000334 0.058714 -1.256622
v 0.664228 0.097847 -1.329836
v 0.664228 0.177289 -1.233036
v 0.664228 0.110122 -1.205214
v 0.664228 0.122886 -1.203957
v 0.664228 0.076620 -1.315653
v 0.664228 0.169152 -1.315653
v 0.664228 0.068483 -1.233036
v 0.664228 0.147925 -1.329836
v 0.664228 0.062437 -1.244348
v 0.664228 0.187059 -1.282151
v 0.664228 0.086535 -1.214984
v 0.664228 0.169152 -1.223121
v 0.664228 0.057456 -1.269387
v 0.664228 0.159237 -1.214984
v 0.664228 0.188316 -1.269387
v 0.664228 0.076620 -1.223121
v 0.664228 0.086535 -1.323790
v 0.664228 0.135651 -1.333560
v 0.664228 0.183336 -1.244348
v 0.664228 0.062437 -1.294426
v 0.664228 0.058714 -1.282151
v 0.664228 0.159237 -1.323790
v 0.664228 0.183336 -1.294426
v 0.664228 0.135651 -1.205214
v 0.664228 0.122886 -1.334817
v 0.664228 0.110122 -1.333560
v 0.664228 0.187059 -1.256622
v 0.664228 0.097847 -1.208937
v 0.664228 0.068483 -1.305738
v 0.664228 0.177290 -1.305738
v 0.664228 0.147925 -1.208937
v 0.664228 0.058714 -1.256622
v -0.660539 0.062437 -1.244348
v -0.660539 0.159237 -1.214984
v -0.660539 0.169152 -1.315653
v -0.660539 0.062437 -1.294426
v -0.660539 0.110122 -1.205214
v -0.660539 0.188316 -1.269387
v -0.660539 0.097847 -1.329836
v -0.660539 0.068483 -1.233036
v -0.660539 0.169152 -1.223121
v -0.660539 0.159237 -1.323790
v -0.660539 0.058713 -1.282151
v -0.660539 0.122886 -1.203957
v -0.660539 0.187059 -1.282151
v -0.660539 0.086535 -1.323790
v -0.660539 0.076620 -1.223121
v -0.660539 0.177289 -1.233036
v -0.660539 0.147925 -1.329836
v -0.660539 0.057456 -1.269387
v -0.660539 0.135651 -1.205214
v -0.660539 0.183336 -1.294426
v -0.660539 0.076620 -1.315653
v -0.660539 0.086535 -1.214984
v -0.660539 0.183336 -1.244348
v -0.660539 0.135651 -1.333560
v -0.660539 0.097847 -1.208937
v -0.660539 0.110122 -1.333560
v -0.660539 0.147925 -1.208937
v -0.660539 0.068483 -1.305738
v -0.660539 0.187059 -1.256622
v -0.660539 0.058713 -1.256622
v -0.660539 0.177289 -1.305738
v -0.660539 0.122886 -1.334817
v -0.657157 0.032212 -1.231828
v -0.737452 0.032212 -1.231828
v -0.657157 0.177413 -1.187782
v -0.737452 0.177413 -1.187782
v -0.657157 0.192285 -1.338785
v -0.737452 0.192285 -1.338785
v -0.657157 0.032212 -1.306945
v -0.737452 0.032212 -1.306945
v -0.657157 0.103739 -1.173127
v -0.737452 0.103739 -1.173127
v -0.657157 0.221031 -1.269386
v -0.737452 0.221031 -1.269386
v -0.657157 0.085328 -1.360061
v -0.737452 0.085328 -1.360061
v -0.657157 0.041282 -1.214860
v -0.737452 0.041282 -1.214860
v -0.657157 0.192285 -1.199987
v -0.737452 0.192285 -1.199987
v -0.657157 0.177413 -1.350991
v -0.737452 0.177413 -1.350991
v -0.657157 0.026627 -1.288534
v -0.737452 0.026627 -1.288534
v -0.657157 0.122886 -1.171241
v -0.737452 0.122886 -1.171241
v -0.657157 0.219146 -1.288534
v -0.737452 0.219146 -1.288534
v -0.657157 0.068360 -1.350991
v -0.737452 0.068360 -1.350991
v -0.657157 0.053487 -1.199987
v -0.737452 0.053487 -1.199987
v -0.657157 0.204491 -1.214860
v -0.737452 0.204491 -1.214860
v -0.657157 0.160445 -1.360061
v -0.737452 0.160445 -1.360061
v -0.657157 0.024741 -1.269386
v -0.737452 0.024741 -1.269386
v -0.657157 0.142033 -1.173127
v -0.737452 0.142033 -1.173127
v -0.657157 0.213560 -1.306945
v -0.737452 0.213560 -1.306945
v -0.657157 0.053487 -1.338785
v -0.737452 0.053487 -1.338785
v -0.657157 0.068360 -1.187782
v -0.737452 0.068360 -1.187782
v -0.657157 0.213560 -1.231828
v -0.737452 0.213560 -1.231828
v -0.657157 0.142033 -1.365646
v -0.737452 0.142033 -1.365646
v -0.737452 0.122886 -1.367531
v -0.737452 0.103739 -1.365646
v -0.737452 0.041282 -1.323913
v -0.737452 0.026627 -1.250239
v -0.737452 0.085328 -1.178712
v -0.737452 0.160445 -1.178712
v -0.737452 0.219146 -1.250239
v -0.737452 0.204491 -1.323913
v -0.657157 0.085328 -1.178712
v -0.657157 0.103739 -1.365646
v -0.657157 0.160445 -1.178712
v -0.657157 0.041282 -1.323913
v -0.657157 0.219146 -1.250239
v -0.657157 0.026627 -1.250239
v -0.657157 0.204491 -1.323913
v -0.657157 0.122886 -1.367531
v 0.741582 0.103739 -1.365646
v 0.741582 0.122886 -1.367532
v 0.741582 0.085328 -1.360061
v 0.741582 0.068360 -1.350991
v 0.741582 0.053487 -1.338786
v 0.741582 0.041282 -1.323913
v 0.741582 0.032212 -1.306945
v 0.741582 0.026627 -1.288534
v 0.741582 0.024741 -1.269387
v 0.741582 0.026627 -1.250239
v 0.741582 0.032212 -1.231828
v 0.741582 0.041282 -1.214860
v 0.741582 0.053487 -1.199988
v 0.741582 0.068360 -1.187782
v 0.741582 0.085328 -1.178712
v 0.741582 0.103739 -1.173127
v 0.741582 0.122886 -1.171242
v 0.741582 0.142034 -1.173127
v 0.741582 0.160445 -1.178712
v 0.741582 0.177413 -1.187782
v 0.741582 0.192285 -1.199988
v 0.741582 0.204491 -1.214860
v 0.741582 0.213561 -1.231828
v 0.741582 0.219146 -1.250239
v 0.741582 0.221031 -1.269387
v 0.741582 0.219146 -1.288534
v 0.741582 0.213561 -1.306945
v 0.741582 0.204491 -1.323913
v 0.741582 0.192285 -1.338786
v 0.741582 0.177413 -1.350991
v 0.741582 0.160445 -1.360061
v 0.741582 0.142034 -1.365646
v 0.660757 0.026627 -1.250239
v 0.660757 0.085328 -1.360061
v 0.660757 0.160445 -1.178712
v 0.660757 0.204491 -1.214860
v 0.660757 0.204491 -1.323913
v 0.660757 0.103739 -1.173127
v 0.660757 0.041282 -1.323913
v 0.660757 0.122886 -1.171242
v 0.660757 0.085328 -1.178712
v 0.660757 0.053487 -1.338786
v 0.660757 0.219146 -1.250239
v 0.660757 0.192285 -1.338786
v 0.660757 0.103739 -1.365646
v 0.660757 0.041282 -1.214860
v 0.660757 0.160445 -1.360061
v 0.660757 0.032212 -1.231828
v 0.660757 0.219146 -1.288534
v 0.660757 0.068360 -1.187782
v 0.660757 0.192285 -1.199988
v 0.660757 0.024741 -1.269387
v 0.660757 0.177413 -1.187782
v 0.660757 0.221031 -1.269387
v 0.660757 0.053487 -1.199988
v 0.660757 0.068360 -1.350991
v 0.660757 0.142034 -1.365646
v 0.660757 0.213561 -1.231828
v 0.660757 0.032212 -1.306945
v 0.660757 0.026627 -1.288534
v 0.660757 0.177413 -1.350991
v 0.660757 0.213561 -1.306945
v 0.660757 0.142034 -1.173127
v 0.660757 0.122886 -1.367532
vt 1.000000 0.518750
vt 1.000000 0.750000
vt 0.968750 0.750000
vt 0.968750 0.518750
vt 0.812500 0.518750
vt 0.812500 0.750000
vt 0.781250 0.750000
vt 0.781250 0.518750
vt 0.531250 0.518750
vt 0.531250 0.750000
vt 0.500000 0.750000
vt 0.500000 0.518750
vt 0.250000 0.518750
vt 0.250000 0.750000
vt 0.218750 0.750000
vt 0.218750 0.518750
vt 0.937500 0.518750
vt 0.937500 0.750000
vt 0.906250 0.750000
vt 0.906250 0.518750
vt 0.656250 0.518750
vt 0.656250 0.750000
vt 0.625000 0.750000
vt 0.625000 0.518750
vt 0.375000 0.518750
vt 0.375000 0.750000
vt 0.343750 0.750000
vt 0.343750 0.518750
vt 0.093750 0.518750
vt 0.093750 0.750000
vt 0.062500 0.750000
vt 0.062500 0.518750
vt 0.750000 0.750000
vt 0.750000 0.518750
vt 0.468750 0.750000
vt 0.468750 0.518750
vt 0.187500 0.750000
vt 0.187500 0.518750
vt 0.875000 0.750000
vt 0.875000 0.518750
vt 0.593750 0.750000
vt 0.593750 0.518750
vt 0.312500 0.750000
vt 0.312500 0.518750
vt 0.031250 0.750000
vt 0.031250 0.518750
vt 0.718750 0.750000
vt 0.718750 0.518750
vt 0.437500 0.750000
vt 0.437500 0.518750
vt 0.156250 0.750000
vt 0.156250 0.518750
vt 0.843750 0.750000
vt 0.843750 0.518750
vt 0.562500 0.750000
vt 0.562500 0.518750
vt 0.281250 0.750000
vt 0.281250 0.518750
vt 0.000000 0.750000
vt 0.000000 0.518750
vt 0.687500 0.750000
vt 0.687500 0.518750
vt 0.406250 0.750000
vt 0.406250 0.518750
vt 0.125000 0.750000
vt 0.125000 0.518750
vt 0.625000 0.981250
vt 0.656250 0.981250
vt 0.656250 0.981250
vt 0.625000 0.981250
vt 0.562500 0.981250
vt 0.593750 0.981250
vt 0.593750 0.981250
vt 0.562500 0.981250
vt 0.125000 0.981250
vt 0.093750 0.981250
vt 0.343750 0.981250
vt 0.375000 0.981250
vt 0.375000 0.981250
vt 0.343750 0.981250
vt 0.281250 0.981250
vt 0.312500 0.981250
vt 0.312500 0.981250
vt 0.281250 0.981250
vt 0.062500 0.981250
vt 0.093750 0.981250
vt 0.062500 0.981250
vt 0.000000 0.981250
vt 0.031250 0.981250
vt 0.031250 0.981250
vt 0.000000 0.981250
vt 0.750000 0.981250
vt 0.781250 0.981250
vt 0.781250 0.981250
vt 0.750000 0.981250
vt 0.687500 0.981250
vt 0.718750 0.981250
vt 0.718750 0.981250
vt 0.687500 0.981250
vt 0.468750 0.981250
vt 0.500000 0.981250
vt 0.500000 0.981250
vt 0.468750 0.981250
vt 0.406250 0.981250
vt 0.437500 0.981250
vt 0.437500 0.981250
vt 0.406250 0.981250
vt 0.187500 0.981250
vt 0.218750 0.981250
vt 0.218750 0.981250
vt 0.187500 0.981250
vt 0.156250 0.981250
vt 0.156250 0.981250
vt 0.125000 0.981250
vt 0.875000 0.981250
vt 0.906250 0.981250
vt 0.906250 0.981250
vt 0.875000 0.981250
vt 0.812500 0.981250
vt 0.843750 0.981250
vt 0.843750 0.981250
vt 0.812500 0.981250
vt 0.531250 0.981250
vt 0.531250 0.981250
vt 0.968750 0.981250
vt 1.000000 0.981250
vt 1.000000 0.981250
vt 0.968750 0.981250
vt 0.250000 0.981250
vt 0.250000 0.981250
vt 0.937500 0.981250
vt 0.937500 0.981250
vt 0.875000 0.518750
vt 0.906250 0.518750
vt 0.812500 0.518750
vt 0.843750 0.518750
vt 0.593750 0.518750
vt 0.625000 0.518750
vt 0.531250 0.518750
vt 0.562500 0.518750
vt 0.312500 0.518750
vt 0.343750 0.518750
vt 0.968750 0.518750
vt 1.000000 0.518750
vt 0.250000 0.518750
vt 0.281250 0.518750
vt 0.031250 0.518750
vt 0.062500 0.518750
vt 0.781250 0.518750
vt 0.937500 0.518750
vt 0.718750 0.518750
vt 0.750000 0.518750
vt 0.500000 0.518750
vt 0.656250 0.518750
vt 0.687500 0.518750
vt 0.437500 0.518750
vt 0.468750 0.518750
vt 0.218750 0.518750
vt 0.375000 0.518750
vt 0.406250 0.518750
vt 0.156250 0.518750
vt 0.187500 0.518750
vt 0.093750 0.518750
vt 0.125000 0.518750
vt 0.000000 0.518750
vt 0.750000 0.490000
vt 0.796822 0.485388
vt 0.841844 0.471731
vt 0.883337 0.449553
vt 0.919706 0.419706
vt 0.949553 0.383337
vt 0.971731 0.341844
vt 0.985388 0.296822
vt 0.990000 0.250000
vt 0.985388 0.203178
vt 0.971731 0.158156
vt 0.949553 0.116663
vt 0.919706 0.080294
vt 0.883337 0.050447
vt 0.841844 0.028269
vt 0.796822 0.014612
vt 0.750000 0.010000
vt 0.703178 0.014612
vt 0.658156 0.028269
vt 0.616663 0.050447
vt 0.580294 0.080294
vt 0.550447 0.116663
vt 0.528269 0.158156
vt 0.514612 0.203178
vt 0.510000 0.250000
vt 0.514612 0.296822
vt 0.528269 0.341844
vt 0.550447 0.383337
vt 0.580294 0.419706
vt 0.616663 0.449553
vt 0.658156 0.471731
vt 0.703178 0.485388
vt 0.125000 0.500000
vt 0.093750 0.500000
vt 0.406250 0.500000
vt 0.375000 0.500000
vt 0.687500 0.500000
vt 0.656250 0.500000
vt 0.968750 0.500000
vt 0.937500 0.500000
vt 0.281250 0.500000
vt 0.250000 0.500000
vt 0.562500 0.500000
vt 0.531250 0.500000
vt 0.843750 0.500000
vt 0.812500 0.500000
vt 0.156250 0.500000
vt 0.437500 0.500000
vt 0.718750 0.500000
vt 0.031250 0.500000
vt 0.000000 0.500000
vt 0.312500 0.500000
vt 0.593750 0.500000
vt 0.875000 0.500000
vt 0.187500 0.500000
vt 0.468750 0.500000
vt 0.750000 0.500000
vt 0.062500 0.500000
vt 0.343750 0.500000
vt 0.625000 0.500000
vt 0.906250 0.500000
vt 0.218750 0.500000
vt 0.500000 0.500000
vt 0.781250 0.500000
vt 1.000000 0.500000
vt 1.000000 1.000000
vt 0.968750 1.000000
vt 0.812500 1.000000
vt 0.781250 1.000000
vt 0.296822 0.485388
vt 0.250000 0.490000
vt 0.203178 0.485388
vt 0.158156 0.471731
vt 0.116663 0.449553
vt 0.080294 0.419706
vt 0.050447 0.383337
vt 0.028269 0.341844
vt 0.014612 0.296822
vt 0.010000 0.250000
vt 0.014612 0.203178
vt 0.028269 0.158156
vt 0.050447 0.116663
vt 0.080294 0.080294
vt 0.116663 0.050447
vt 0.158156 0.028269
vt 0.203178 0.014612
vt 0.250000 0.010000
vt 0.296822 0.014612
vt 0.341844 0.028269
vt 0.383337 0.050447
vt 0.419706 0.080294
vt 0.449553 0.116663
vt 0.471731 0.158156
vt 0.485388 0.203178
vt 0.490000 0.250000
vt 0.485388 0.296822
vt 0.471731 0.341844
vt 0.449553 0.383337
vt 0.419706 0.419706
vt 0.383337 0.449553
vt 0.341844 0.471731
vt 0.531250 1.000000
vt 0.500000 1.000000
vt 0.250000 1.000000
vt 0.218750 1.000000
vt 0.937500 1.000000
vt 0.906250 1.000000
vt 0.656250 1.000000
vt 0.625000 1.000000
vt 0.375000 1.000000
vt 0.343750 1.000000
vt 0.093750 1.000000
vt 0.062500 1.000000
vt 0.750000 1.000000
vt 0.468750 1.000000
vt 0.187500 1.000000
vt 0.875000 1.000000
vt 0.593750 1.000000
vt 0.312500 1.000000
vt 0.031250 1.000000
vt 0.718750 1.000000
vt 0.437500 1.000000
vt 0.156250 1.000000
vt 0.843750 1.000000
vt 0.562500 1.000000
vt 0.281250 1.000000
vt 0.000000 1.000000
vt 0.687500 1.000000
vt 0.406250 1.000000
vt 0.125000 1.000000
vn -0.0000 -0.0980 -0.9952
vn 0.0000 -0.9569 -0.2903
vn -0.0000 -0.0980 0.9952
vn -0.0000 0.9952 -0.0980
vn -0.0000 -0.4714 -0.8819
vn 0.0000 -0.7730 0.6344
vn -0.0000 0.7730 0.6344
vn 0.0000 0.4714 -0.8819
vn 0.0000 -0.9952 -0.0980
vn -0.0000 0.0980 0.9952
vn -0.0000 0.9569 -0.2903
vn 0.0000 -0.6344 -0.7730
vn 0.0000 -0.6344 0.7730
vn -0.0000 0.8819 0.4714
vn 0.0000 0.2903 -0.9569
vn 0.0000 -0.9952 0.0980
vn -0.0000 0.2903 0.9569
vn -0.0000 0.8819 -0.4714
vn 0.0000 -0.7730 -0.6344
vn -0.0000 -0.4714 0.8819
vn -0.0000 0.9569 0.2903
vn -0.0000 0.0980 -0.9952
vn 0.0000 -0.9569 0.2903
vn -0.0000 0.4714 0.8819
vn -0.0000 0.7730 -0.6344
vn 0.0000 -0.8819 -0.4714
vn -0.0000 -0.2903 0.9569
vn -0.0000 0.9952 0.0980
vn -0.0000 -0.2903 -0.9569
vn 0.0000 -0.8819 0.4714
vn -0.0000 0.6344 0.7730
vn -0.9944 0.0819 -0.0673
vn -0.9944 0.0500 -0.0935
vn -0.0000 0.6344 -0.7730
vn -0.9944 -0.0819 -0.0672
vn -0.9944 -0.1014 -0.0308
vn -0.9944 -0.0500 0.0935
vn -0.9944 -0.0104 0.1055
vn -0.9944 0.1055 0.0104
vn -0.9944 0.1014 -0.0308
vn -0.9944 -0.0104 -0.1055
vn -0.9944 -0.0500 -0.0935
vn -0.9944 -0.1014 0.0308
vn -0.9944 -0.0819 0.0672
vn -0.9944 0.0672 0.0819
vn -0.9944 0.0935 0.0500
vn -0.9944 0.0672 -0.0819
vn -0.9944 0.0308 -0.1014
vn -0.9944 -0.0935 -0.0500
vn -0.9944 0.0104 0.1055
vn -0.9944 -0.1055 -0.0104
vn -0.9944 -0.0308 0.1014
vn -0.9944 0.1014 0.0308
vn -0.9944 0.0308 0.1014
vn -0.9944 0.1055 -0.0104
vn -0.9944 0.0104 -0.1055
vn -0.9944 0.0935 -0.0500
vn -0.9944 -0.0308 -0.1014
vn -0.9944 -0.1055 0.0104
vn -0.9944 -0.0672 -0.0819
vn -0.9944 -0.0935 0.0500
vn -0.9944 0.0500 0.0935
vn -0.9944 -0.0672 0.0819
vn -0.9944 0.0819 0.0672
vn 0.9946 0.0656 0.0799
vn 0.9946 0.0911 0.0487
vn 0.9946 0.0656 -0.0799
vn 0.9946 0.0300 -0.0989
vn 0.9946 -0.0911 -0.0487
vn 0.9946 0.0101 0.1028
vn 0.9946 -0.1028 -0.0101
vn 0.9946 -0.0300 0.0989
vn 0.9946 0.0989 0.0300
vn 0.9946 0.0300 0.0989
vn 0.9946 0.1028 -0.0101
vn 0.9946 0.0101 -0.1028
vn 0.9946 0.0911 -0.0487
vn 0.9946 -0.0300 -0.0989
vn 0.9946 -0.1028 0.0101
vn 0.9946 -0.0656 -0.0799
vn 0.9946 -0.0911 0.0487
vn 0.9946 0.0487 0.0911
vn 0.9946 -0.0656 0.0799
vn 0.9946 0.0799 0.0656
vn 0.9946 0.0799 -0.0656
vn 0.9946 0.0487 -0.0911
vn 0.9946 -0.0799 -0.0656
vn 0.9946 -0.0989 -0.0300
vn 0.9946 -0.0487 0.0911
vn 0.9946 -0.0101 0.1028
vn 0.9946 0.1028 0.0101
vn 0.9946 0.0989 -0.0300
vn 0.9946 -0.0101 -0.1028
vn 0.9946 -0.0487 -0.0911
vn 0.9946 -0.0989 0.0300
vn 0.9946 -0.0799 0.0656
vn -1.0000 0.0000 0.0000
vn 1.0000 0.0000 0.0000
usemtl None
s off
f 96/1/1 1/2/1 20/3/1 90/4/1
f 68/5/2 25/6/2 15/7/2 75/8/2
f 69/9/3 23/10/3 14/11/3 76/12/3
f 70/13/4 21/14/4 13/15/4 77/16/4
f 71/17/5 19/18/5 12/19/5 78/20/5
f 72/21/6 18/22/6 11/23/6 79/24/6
f 73/25/7 17/26/7 10/27/7 80/28/7
f 74/29/8 16/30/8 9/31/8 81/32/8
f 75/8/9 15/7/9 8/33/9 82/34/9
f 76/12/10 14/11/10 7/35/10 83/36/10
f 77/16/11 13/15/11 6/37/11 84/38/11
f 78/20/12 12/19/12 5/39/12 85/40/12
f 79/24/13 11/23/13 4/41/13 86/42/13
f 80/28/14 10/27/14 3/43/14 87/44/14
f 81/32/15 9/31/15 2/45/15 88/46/15
f 82/34/16 8/33/16 32/47/16 94/48/16
f 83/36/17 7/35/17 30/49/17 91/50/17
f 84/38/18 6/37/18 28/51/18 95/52/18
f 85/40/19 5/39/19 26/53/19 92/54/19
f 86/42/20 4/41/20 24/55/20 89/56/20
f 87/44/21 3/43/21 22/57/21 93/58/21
f 88/46/22 2/45/22 1/59/22 96/60/22
f 94/48/23 32/47/23 31/61/23 65/62/23
f 91/50/24 30/49/24 29/63/24 66/64/24
f 95/52/25 28/51/25 27/65/25 67/66/25
f 92/54/26 26/53/26 25/6/26 68/5/26
f 89/56/27 24/55/27 23/10/27 69/9/27
f 93/58/28 22/57/28 21/14/28 70/13/28
f 90/4/29 20/3/29 19/18/29 71/17/29
f 65/62/30 31/61/30 18/22/30 72/21/30
f 66/64/31 29/63/31 17/26/31 73/25/31
f 48/67/32 39/68/32 206/69/32 215/70/32
f 60/71/33 43/72/33 210/73/33 201/74/33
f 27/65/34 38/75/34 54/76/34 16/30/34
f 34/77/35 44/78/35 211/79/35 196/80/35
f 59/81/36 51/82/36 218/83/36 203/84/36
f 40/85/37 54/76/37 221/86/37 207/87/37
f 57/88/38 50/89/38 217/90/38 224/91/38
f 45/92/39 53/93/39 220/94/39 212/95/39
f 41/96/40 64/97/40 193/98/40 208/99/40
f 56/100/41 36/101/41 200/102/41 223/103/41
f 46/104/42 63/105/42 195/106/42 213/107/42
f 55/108/43 42/109/43 209/110/43 222/111/43
f 38/75/44 62/112/44 197/113/44 204/114/44
f 37/115/45 49/116/45 216/117/45 202/118/45
f 52/119/46 61/120/46 199/121/46 219/122/46
f 43/72/47 48/67/47 215/70/47 210/73/47
f 35/123/48 60/71/48 201/74/48 198/124/48
f 51/82/49 34/77/49 196/80/49 218/83/49
f 58/125/50 57/126/50 224/127/50 205/128/50
f 47/129/51 59/81/51 203/84/51 214/130/51
f 50/89/52 40/85/52 207/87/52 217/90/52
f 53/93/53 52/119/53 219/122/53 220/94/53
f 33/131/54 58/125/54 205/128/54 194/132/54
f 64/97/55 45/92/55 212/95/55 193/98/55
f 36/101/56 35/123/56 198/124/56 200/102/56
f 39/68/57 41/96/57 208/99/57 206/69/57
f 63/105/58 56/100/58 223/103/58 195/106/58
f 42/109/59 47/129/59 214/130/59 209/110/59
f 44/78/60 46/104/60 213/107/60 211/79/60
f 62/112/61 55/108/61 222/111/61 197/113/61
f 67/66/34 27/65/34 16/30/34 74/29/34
f 49/116/62 33/131/62 194/132/62 216/117/62
f 54/76/63 38/75/63 204/114/63 221/86/63
f 61/120/64 37/115/64 202/118/64 199/121/64
f 78/20/65 85/40/65 137/133/65 123/134/65
f 92/54/66 68/5/66 103/135/66 156/136/66
f 79/24/67 86/42/67 139/137/67 125/138/67
f 89/56/68 69/9/68 105/139/68 153/140/68
f 80/28/69 87/44/69 141/141/69 127/142/69
f 96/1/70 90/4/70 154/143/70 160/144/70
f 93/58/71 70/13/71 107/145/71 157/146/71
f 81/32/72 88/46/72 143/147/72 129/148/72
f 68/5/73 75/8/73 117/149/73 103/135/73
f 90/4/74 71/17/74 109/150/74 154/143/74
f 82/34/75 94/48/75 158/151/75 131/152/75
f 69/9/76 76/12/76 119/153/76 105/139/76
f 65/62/77 72/21/77 111/154/77 97/155/77
f 83/36/78 91/50/78 155/156/78 133/157/78
f 70/13/79 77/16/79 121/158/79 107/145/79
f 66/64/80 73/25/80 113/159/80 99/160/80
f 84/38/81 95/52/81 159/161/81 135/162/81
f 71/17/82 78/20/82 123/134/82 109/150/82
f 67/66/83 74/29/83 115/163/83 101/164/83
f 85/40/84 92/54/84 156/136/84 137/133/84
f 72/21/85 79/24/85 125/138/85 111/154/85
f 86/42/86 89/56/86 153/140/86 139/137/86
f 73/25/87 80/28/87 127/142/87 113/159/87
f 87/44/88 93/58/88 157/146/88 141/141/88
f 74/29/89 81/32/89 129/148/89 115/163/89
f 88/46/90 96/60/90 160/165/90 143/147/90
f 75/8/91 82/34/91 131/152/91 117/149/91
f 94/48/92 65/62/92 97/155/92 158/151/92
f 76/12/93 83/36/93 133/157/93 119/153/93
f 91/50/94 66/64/94 99/160/94 155/156/94
f 77/16/95 84/38/95 135/162/95 121/158/95
f 95/52/96 67/66/96 101/164/96 159/161/96
f 145/166/97 146/167/97 110/168/97 124/169/97 138/170/97 147/171/97 104/172/97 118/173/97 132/174/97 148/175/97 98/176/97 112/177/97 126/178/97 140/179/97 149/180/97 106/181/97 120/182/97 134/183/97 150/184/97 100/185/97 114/186/97 128/187/97 142/188/97 151/189/97 108/190/97 122/191/97 136/192/97 152/193/97 102/194/97 116/195/97 130/196/97 144/197/97
f 102/198/34 101/164/34 115/163/34 116/199/34
f 100/200/31 99/160/31 113/159/31 114/201/31
f 98/202/30 97/155/30 111/154/30 112/203/30
f 146/204/29 154/143/29 109/150/29 110/205/29
f 151/206/28 157/146/28 107/145/28 108/207/28
f 149/208/27 153/140/27 105/139/27 106/209/27
f 147/210/26 156/136/26 103/135/26 104/211/26
f 152/212/25 159/161/25 101/164/25 102/198/25
f 150/213/24 155/156/24 99/160/24 100/200/24
f 148/214/23 158/151/23 97/155/23 98/202/23
f 144/215/22 143/147/22 160/165/22 145/216/22
f 142/217/21 141/141/21 157/146/21 151/206/21
f 140/218/20 139/137/20 153/140/20 149/208/20
f 138/219/19 137/133/19 156/136/19 147/210/19
f 136/220/18 135/162/18 159/161/18 152/212/18
f 134/221/17 133/157/17 155/156/17 150/213/17
f 132/222/16 131/152/16 158/151/16 148/214/16
f 130/223/15 129/148/15 143/147/15 144/215/15
f 128/224/14 127/142/14 141/141/14 142/217/14
f 126/225/13 125/138/13 139/137/13 140/218/13
f 124/226/12 123/134/12 137/133/12 138/219/12
f 122/227/11 121/158/11 135/162/11 136/220/11
f 120/228/10 119/153/10 133/157/10 134/221/10
f 118/229/9 117/149/9 131/152/9 132/222/9
f 116/199/8 115/163/8 129/148/8 130/223/8
f 114/201/7 113/159/7 127/142/7 128/224/7
f 112/203/6 111/154/6 125/138/6 126/225/6
f 110/205/5 109/150/5 123/134/5 124/226/5
f 108/207/4 107/145/4 121/158/4 122/227/4
f 106/209/3 105/139/3 119/153/3 120/228/3
f 104/211/2 103/135/2 117/149/2 118/229/2
f 145/230/1 160/144/1 154/143/1 146/204/1
f 29/63/31 46/104/31 44/78/31 17/26/31
f 31/61/30 41/96/30 39/68/30 18/22/30
f 20/3/29 58/125/29 33/131/29 19/18/29
f 22/57/28 59/81/28 47/129/28 21/14/28
f 24/55/27 60/71/27 35/123/27 23/10/27
f 26/53/26 61/120/26 52/119/26 25/6/26
f 28/51/25 62/112/25 38/75/25 27/65/25
f 30/49/24 63/105/24 46/104/24 29/63/24
f 32/47/23 64/97/23 41/96/23 31/61/23
f 2/45/22 50/89/22 57/88/22 1/59/22
f 3/43/21 51/82/21 59/81/21 22/57/21
f 4/41/20 43/72/20 60/71/20 24/55/20
f 5/39/19 37/115/19 61/120/19 26/53/19
f 6/37/18 55/108/18 62/112/18 28/51/18
f 7/35/17 56/100/17 63/105/17 30/49/17
f 8/33/16 45/92/16 64/97/16 32/47/16
f 9/31/15 40/85/15 50/89/15 2/45/15
f 10/27/14 34/77/14 51/82/14 3/43/14
f 11/23/13 48/67/13 43/72/13 4/41/13
f 12/19/12 49/116/12 37/115/12 5/39/12
f 13/15/11 42/109/11 55/108/11 6/37/11
f 14/11/10 36/101/10 56/100/10 7/35/10
f 15/7/9 53/93/9 45/92/9 8/33/9
f 16/30/8 54/76/8 40/85/8 9/31/8
f 17/26/7 44/78/7 34/77/7 10/27/7
f 18/22/6 39/68/6 48/67/6 11/23/6
f 19/18/5 33/131/5 49/116/5 12/19/5
f 21/14/4 47/129/4 42/109/4 13/15/4
f 23/10/3 35/123/3 36/101/3 14/11/3
f 25/6/2 52/119/2 53/93/2 15/7/2
f 1/2/1 57/126/1 58/125/1 20/3/1
f 224/127/1 162/231/1 161/232/1 205/128/1
f 219/122/2 167/233/2 168/234/2 220/94/2
f 161/235/98 162/236/98 192/237/98 191/238/98 190/239/98 189/240/98 188/241/98 187/242/98 186/243/98 185/244/98 184/245/98 183/246/98 182/247/98 181/248/98 180/249/98 179/250/98 178/251/98 177/252/98 176/253/98 175/254/98 174/255/98 173/256/98 172/257/98 171/258/98 170/259/98 169/260/98 168/261/98 167/262/98 166/263/98 165/264/98 164/265/98 163/266/98
f 198/124/3 176/267/3 177/268/3 200/102/3
f 214/130/4 185/269/4 186/270/4 209/110/4
f 194/132/5 163/271/5 164/272/5 216/117/5
f 206/69/6 172/273/6 173/274/6 215/70/6
f 211/79/7 181/275/7 182/276/7 196/80/7
f 221/86/8 190/277/8 191/278/8 207/87/8
f 220/94/9 168/234/9 169/279/9 212/95/9
f 200/102/10 177/268/10 178/280/10 223/103/10
f 209/110/11 186/270/11 187/281/11 222/111/11
f 216/117/12 164/272/12 165/282/12 202/118/12
f 215/70/13 173/274/13 174/283/13 210/73/13
f 196/80/14 182/276/14 183/284/14 218/83/14
f 207/87/15 191/278/15 192/285/15 217/90/15
f 212/95/16 169/279/16 170/286/16 193/98/16
f 223/103/17 178/280/17 179/287/17 195/106/17
f 222/111/18 187/281/18 188/288/18 197/113/18
f 202/118/19 165/282/19 166/289/19 199/121/19
f 210/73/20 174/283/20 175/290/20 201/74/20
f 218/83/21 183/284/21 184/291/21 203/84/21
f 217/90/22 192/285/22 162/292/22 224/91/22
f 193/98/23 170/286/23 171/293/23 208/99/23
f 195/106/24 179/287/24 180/294/24 213/107/24
f 197/113/25 188/288/25 189/295/25 204/114/25
f 199/121/26 166/289/26 167/233/26 219/122/26
f 201/74/27 175/290/27 176/267/27 198/124/27
f 203/84/28 184/291/28 185/269/28 214/130/28
f 205/128/29 161/232/29 163/271/29 194/132/29
f 208/99/30 171/293/30 172/273/30 206/69/30
f 213/107/31 180/294/31 181/275/31 211/79/31
f 204/114/34 189/295/34 190/277/34 221/86/34
