# Blender v3.0.1 OBJ File: 'krishka_stvolnoi_korobki.blend'
# www.blender.org
mtllib 17.2.mtl
o Cylinder_Cylinder.001
v -0.000334 0.122886 -1.334817
v -0.000334 0.135651 -1.333560
v -0.000334 0.183336 -1.244348
v -0.000334 0.086535 -1.214984
v -0.000334 0.076620 -1.315653
v -0.000334 0.183336 -1.294426
v -0.000334 0.135651 -1.205214
v -0.000334 0.057456 -1.269387
v -0.000334 0.147925 -1.329836
v -0.000334 0.177289 -1.233036
v -0.000334 0.076620 -1.223121
v -0.000334 0.086535 -1.323790
v -0.000334 0.187059 -1.282151
v -0.000334 0.122886 -1.203957
v -0.000334 0.058714 -1.282151
v -0.000334 0.159237 -1.323790
v -0.000334 0.169152 -1.223121
v -0.000334 0.068483 -1.233036
v -0.000334 0.097847 -1.329836
v -0.000334 0.110122 -1.333560
v -0.000334 0.188316 -1.269387
v -0.000334 0.187059 -1.256622
v -0.000334 0.110122 -1.205214
v -0.000334 0.097847 -1.208937
v -0.000334 0.062437 -1.294426
v -0.000334 0.068483 -1.305738
v -0.000334 0.169152 -1.315653
v -0.000334 0.177289 -1.305738
v -0.000334 0.159237 -1.214984
v -0.000334 0.147925 -1.208937
v -0.000334 0.062437 -1.244348
v -0.000334 0.058714 -1.256622
v 0.664228 0.097847 -1.329836
v 0.664228 0.177290 -1.233036
v 0.664228 0.110122 -1.205214
v 0.664228 0.122886 -1.203957
v 0.664228 0.076620 -1.315653
v 0.664228 0.169152 -1.315653
v 0.664228 0.068483 -1.233036
v 0.664228 0.147925 -1.329836
v 0.664228 0.062437 -1.244348
v 0.664228 0.187059 -1.282151
v 0.664228 0.086535 -1.214984
v 0.664228 0.169152 -1.223121
v 0.664228 0.057456 -1.269387
v 0.664228 0.159237 -1.214984
v 0.664228 0.188316 -1.269387
v 0.664228 0.076620 -1.223121
v 0.664228 0.086535 -1.323790
v 0.664228 0.135651 -1.333560
v 0.664228 0.183336 -1.244348
v 0.664228 0.062437 -1.294426
v 0.664228 0.058714 -1.282151
v 0.664228 0.159237 -1.323790
v 0.664228 0.183336 -1.294426
v 0.664228 0.135651 -1.205214
v 0.664228 0.122886 -1.334817
v 0.664228 0.110122 -1.333560
v 0.664228 0.187059 -1.256622
v 0.664228 0.097847 -1.208937
v 0.664228 0.068483 -1.305738
v 0.664228 0.177290 -1.305738
v 0.664228 0.147925 -1.208937
v 0.664228 0.058714 -1.256622
v -0.660539 0.062437 -1.244348
v -0.660539 0.159237 -1.214984
v -0.660539 0.169152 -1.315653
v -0.660539 0.062437 -1.294426
v -0.660539 0.110122 -1.205214
v -0.660539 0.188316 -1.269387
v -0.660539 0.097847 -1.329836
v -0.660539 0.068483 -1.233036
v -0.660539 0.169152 -1.223121
v -0.660539 0.159237 -1.323790
v -0.660539 0.058713 -1.282151
v -0.660539 0.122886 -1.203957
v -0.660539 0.187059 -1.282151
v -0.660539 0.086535 -1.323790
v -0.660539 0.076620 -1.223121
v -0.660539 0.177289 -1.233036
v -0.660539 0.147925 -1.329836
v -0.660539 0.057456 -1.269387
v -0.660539 0.135651 -1.205214
v -0.660539 0.183336 -1.294426
v -0.660539 0.076620 -1.315653
v -0.660539 0.086535 -1.214984
v -0.660539 0.183336 -1.244348
v -0.660539 0.135651 -1.333560
v -0.660539 0.097847 -1.208937
v -0.660539 0.110122 -1.333560
v -0.660539 0.147925 -1.208937
v -0.660539 0.068483 -1.305738
v -0.660539 0.187059 -1.256622
v -0.660539 0.058713 -1.256622
v -0.660539 0.177289 -1.305738
v -0.660539 0.122886 -1.334817
v -0.590719 0.062048 -1.293145
v -0.581236 0.187577 -1.261883
v -0.581236 0.058195 -1.261883
v -0.584187 0.187422 -1.260305
v -0.584187 0.058351 -1.260305
v -0.587389 0.187326 -1.259334
v -0.587389 0.058446 -1.259334
v -0.590719 0.187294 -1.259006
v -0.590719 0.058479 -1.259006
v -0.606489 0.058852 -1.282607
v -0.606627 0.058713 -1.282151
v -0.574810 0.058713 -1.282151
v -0.574949 0.058852 -1.282607
v -0.602789 0.060532 -1.288145
v -0.576526 0.059747 -1.285559
v -0.604911 0.059747 -1.285559
v -0.578649 0.060532 -1.288145
v -0.597251 0.061654 -1.291845
v -0.581236 0.061176 -1.290268
v -0.594049 0.061949 -1.292817
v -0.587389 0.061949 -1.292817
v -0.600202 0.061176 -1.290268
v -0.584187 0.061654 -1.291845
v -0.594049 0.187326 -1.259334
v -0.594049 0.058446 -1.259334
v -0.606405 0.188316 -1.269387
v -0.606489 0.188301 -1.269543
v -0.597251 0.187422 -1.260305
v -0.597251 0.058351 -1.260305
v -0.575032 0.188316 -1.269387
v -0.574949 0.188301 -1.269543
v -0.600202 0.187577 -1.261883
v -0.600202 0.058195 -1.261883
v -0.607460 0.187986 -1.272745
v -0.607788 0.187658 -1.276075
v -0.573977 0.187986 -1.272745
v -0.573977 0.187330 -1.279405
v -0.606627 0.187059 -1.282151
v -0.574810 0.187059 -1.282151
v -0.607460 0.187330 -1.279405
v -0.573649 0.187658 -1.276075
v -0.602789 0.187786 -1.264005
v -0.602789 0.057986 -1.264005
v -0.604911 0.188041 -1.266592
v -0.604911 0.057732 -1.266592
v -0.606405 0.057456 -1.269387
v -0.606489 0.057472 -1.269543
v -0.607460 0.057787 -1.272745
v -0.575032 0.057456 -1.269387
v -0.574949 0.057472 -1.269543
v -0.573977 0.057787 -1.272745
v -0.573649 0.058115 -1.276075
v -0.607460 0.058443 -1.279405
v -0.607788 0.058115 -1.276075
v -0.573977 0.058443 -1.279405
v -0.606489 0.186921 -1.282607
v -0.574949 0.186921 -1.282607
v -0.602789 0.185241 -1.288145
v -0.578649 0.185241 -1.288145
v -0.604911 0.186026 -1.285559
v -0.576526 0.186026 -1.285559
v -0.597251 0.184119 -1.291845
v -0.584187 0.184119 -1.291845
v -0.590719 0.183724 -1.293145
v -0.594049 0.183824 -1.292817
v -0.587389 0.183824 -1.292817
v -0.581236 0.184597 -1.290268
v -0.600202 0.184597 -1.290268
v -0.576526 0.057732 -1.266592
v -0.578649 0.057986 -1.264005
v -0.578649 0.187786 -1.264005
v -0.576526 0.188041 -1.266592
vt 1.000000 0.518750
vt 1.000000 0.750000
vt 0.968750 0.750000
vt 0.968750 0.518750
vt 0.781250 0.537634
vt 0.781250 0.518750
vt 0.812500 0.518750
vt 0.812500 0.750000
vt 0.781250 0.750000
vt 0.781250 0.548778
vt 0.782411 0.548730
vt 0.789925 0.548177
vt 0.796510 0.547434
vt 0.801915 0.546528
vt 0.805931 0.545494
vt 0.808404 0.544372
vt 0.809239 0.543206
vt 0.808404 0.542040
vt 0.805931 0.540918
vt 0.801915 0.539884
vt 0.796510 0.538978
vt 0.789925 0.538235
vt 0.782411 0.537682
vt 0.531250 0.518750
vt 0.531250 0.750000
vt 0.500000 0.750000
vt 0.500000 0.518750
vt 0.250000 0.750000
vt 0.218750 0.750000
vt 0.218750 0.548778
vt 0.225473 0.549070
vt 0.233625 0.549185
vt 0.241778 0.549070
vt 0.249617 0.548730
vt 0.250000 0.548700
vt 0.218750 0.537634
vt 0.218750 0.518750
vt 0.250000 0.518750
vt 0.250000 0.537712
vt 0.249617 0.537682
vt 0.241778 0.537342
vt 0.233625 0.537227
vt 0.225473 0.537342
vt 0.937500 0.518750
vt 0.937500 0.750000
vt 0.906250 0.750000
vt 0.906250 0.518750
vt 0.656250 0.518750
vt 0.656250 0.750000
vt 0.625000 0.750000
vt 0.625000 0.518750
vt 0.375000 0.518750
vt 0.375000 0.750000
vt 0.343750 0.750000
vt 0.343750 0.518750
vt 0.093750 0.518750
vt 0.093750 0.750000
vt 0.062500 0.750000
vt 0.062500 0.518750
vt 0.750000 0.750000
vt 0.750000 0.548700
vt 0.750383 0.548730
vt 0.758222 0.549070
vt 0.766375 0.549185
vt 0.774527 0.549070
vt 0.750000 0.537712
vt 0.750000 0.518750
vt 0.774527 0.537342
vt 0.766375 0.537227
vt 0.758222 0.537342
vt 0.750383 0.537682
vt 0.468750 0.750000
vt 0.468750 0.518750
vt 0.187500 0.750000
vt 0.187500 0.518750
vt 0.217589 0.537682
vt 0.210075 0.538235
vt 0.203490 0.538978
vt 0.198085 0.539884
vt 0.194069 0.540918
vt 0.191596 0.542040
vt 0.190761 0.543206
vt 0.191596 0.544372
vt 0.194069 0.545494
vt 0.198085 0.546528
vt 0.203490 0.547434
vt 0.210076 0.548177
vt 0.217589 0.548730
vt 0.875000 0.750000
vt 0.875000 0.518750
vt 0.593750 0.750000
vt 0.593750 0.518750
vt 0.312500 0.750000
vt 0.312500 0.518750
vt 0.031250 0.750000
vt 0.031250 0.518750
vt 0.718750 0.750000
vt 0.718750 0.518750
vt 0.743159 0.538235
vt 0.736826 0.538978
vt 0.731629 0.539884
vt 0.727767 0.540918
vt 0.725389 0.542040
vt 0.724587 0.543206
vt 0.725389 0.544372
vt 0.727767 0.545494
vt 0.731629 0.546528
vt 0.736826 0.547434
vt 0.743159 0.548177
vt 0.437500 0.750000
vt 0.437500 0.518750
vt 0.156250 0.750000
vt 0.156250 0.518750
vt 0.843750 0.750000
vt 0.843750 0.518750
vt 0.562500 0.750000
vt 0.562500 0.518750
vt 0.281250 0.750000
vt 0.281250 0.518750
vt 0.000000 0.750000
vt 0.000000 0.518750
vt 0.687500 0.750000
vt 0.687500 0.518750
vt 0.406250 0.750000
vt 0.406250 0.518750
vt 0.125000 0.750000
vt 0.125000 0.518750
vt 0.256841 0.548177
vt 0.263174 0.547434
vt 0.268371 0.546528
vt 0.272233 0.545494
vt 0.274611 0.544372
vt 0.275413 0.543206
vt 0.274611 0.542040
vt 0.272233 0.540918
vt 0.268371 0.539884
vt 0.263174 0.538978
vt 0.256842 0.538235
vt 0.125000 0.981250
vt 0.093750 0.981250
vt 0.406250 0.981250
vt 0.375000 0.981250
vt 0.687500 0.981250
vt 0.656250 0.981250
vt 0.968750 0.981250
vt 0.937500 0.981250
vt 0.281250 0.981250
vt 0.250000 0.981250
vt 0.562500 0.981250
vt 0.531250 0.981250
vt 0.843750 0.981250
vt 0.812500 0.981250
vt 0.156250 0.981250
vt 0.437500 0.981250
vt 0.718750 0.981250
vt 0.031250 0.981250
vt 0.000000 0.981250
vt 0.312500 0.981250
vt 0.593750 0.981250
vt 0.875000 0.981250
vt 0.187500 0.981250
vt 0.468750 0.981250
vt 0.750000 0.981250
vt 0.062500 0.981250
vt 0.343750 0.981250
vt 0.625000 0.981250
vt 0.906250 0.981250
vt 0.218750 0.981250
vt 0.500000 0.981250
vt 0.781250 0.981250
vt 1.000000 0.981250
vt 1.000000 0.672870
vt 0.968750 0.672737
vt 0.968750 0.836153
vt 1.000000 0.836020
vt 0.937500 0.672342
vt 0.937500 0.836548
vt 0.906250 0.671700
vt 0.906250 0.837190
vt 0.875000 0.670837
vt 0.875000 0.838053
vt 0.843750 0.669785
vt 0.843750 0.839105
vt 0.812500 0.668584
vt 0.812500 0.840306
vt 0.808050 0.668399
vt 0.781250 0.668036
vt 0.781250 0.840854
vt 0.808049 0.840491
vt 0.750000 0.667596
vt 0.750000 0.841293
vt 0.718750 0.667157
vt 0.718750 0.841733
vt 0.687500 0.666734
vt 0.687500 0.842156
vt 0.685842 0.666713
vt 0.656250 0.667082
vt 0.656250 0.841808
vt 0.685842 0.842177
vt 0.625000 0.667424
vt 0.625000 0.841466
vt 0.593750 0.667704
vt 0.593750 0.841186
vt 0.562500 0.667912
vt 0.562500 0.840977
vt 0.531250 0.668041
vt 0.531250 0.840849
vt 0.500000 0.668084
vt 0.500000 0.840806
vt 0.468750 0.668041
vt 0.468750 0.840849
vt 0.437500 0.667912
vt 0.437500 0.840977
vt 0.406250 0.667704
vt 0.406250 0.841186
vt 0.375000 0.667424
vt 0.375000 0.841466
vt 0.343750 0.841808
vt 0.343750 0.667082
vt 0.312500 0.666734
vt 0.312500 0.842156
vt 0.314158 0.842177
vt 0.314158 0.666713
vt 0.281250 0.841733
vt 0.281250 0.667157
vt 0.250000 0.841293
vt 0.250000 0.667596
vt 0.218750 0.840854
vt 0.218750 0.668036
vt 0.187500 0.840306
vt 0.191951 0.840491
vt 0.191951 0.668399
vt 0.187500 0.668584
vt 0.156250 0.669785
vt 0.156250 0.839105
vt 0.125000 0.670837
vt 0.125000 0.838053
vt 0.093750 0.671700
vt 0.093750 0.837190
vt 0.062500 0.672342
vt 0.062500 0.836548
vt 0.031250 0.672737
vt 0.031250 0.836153
vt 0.000000 0.672870
vt 0.000000 0.836020
vn -0.0000 -0.0980 -0.9952
vn 0.0000 -0.9569 -0.2903
vn -0.0000 -0.0980 0.9952
vn -0.0000 0.9952 -0.0980
vn -0.0000 -0.4714 -0.8819
vn 0.0000 -0.7730 0.6344
vn -0.0000 0.7730 0.6344
vn 0.0000 0.4714 -0.8819
vn 0.0000 -0.9952 -0.0980
vn -0.0000 0.0980 0.9952
vn -0.0000 0.9569 -0.2903
vn 0.0000 -0.6344 -0.7730
vn 0.0000 -0.6344 0.7730
vn -0.0000 0.8819 0.4714
vn -0.0000 0.2903 -0.9569
vn 0.0000 -0.9952 0.0980
vn -0.0000 0.2903 0.9569
vn -0.0000 0.8819 -0.4714
vn 0.0000 -0.7730 -0.6344
vn 0.0000 -0.4714 0.8819
vn -0.0000 0.9569 0.2903
vn 0.0000 0.0980 -0.9952
vn 0.0000 -0.9569 0.2903
vn -0.0000 0.4714 0.8819
vn -0.0000 0.7730 -0.6344
vn 0.0000 -0.8819 -0.4714
vn 0.0000 -0.2903 0.9569
vn -0.0000 0.9952 0.0980
vn -0.0000 -0.2903 -0.9569
vn 0.0000 -0.8819 0.4714
vn -0.0000 0.6344 0.7730
vn -0.0000 0.6344 -0.7730
vn -1.0000 -0.0000 0.0000
vn 1.0000 -0.0000 -0.0000
vn -0.0980 0.0000 0.9952
vn -0.2903 0.0000 0.9569
vn -0.4714 0.0000 0.8819
vn -0.6344 0.0000 0.7730
vn -0.7730 0.0000 0.6344
vn -0.8819 0.0000 0.4714
vn -0.9569 -0.0000 0.2903
vn -0.9952 0.0000 0.0980
vn -0.9952 0.0000 -0.0980
vn -0.9569 0.0000 -0.2903
vn -0.8819 0.0000 -0.4714
vn -0.7730 0.0000 -0.6344
vn -0.6344 0.0000 -0.7730
vn -0.4714 0.0000 -0.8819
vn -0.2902 0.0000 -0.9570
vn -0.0981 0.0000 -0.9952
vn 0.0981 0.0000 -0.9952
vn 0.2902 0.0000 -0.9570
vn 0.4714 0.0000 -0.8819
vn 0.6344 0.0000 -0.7730
vn 0.7730 0.0000 -0.6344
vn 0.8819 0.0000 -0.4714
vn 0.9569 0.0000 -0.2903
vn 0.9952 0.0000 -0.0980
vn 0.9952 0.0000 0.0980
vn 0.9569 -0.0000 0.2903
vn 0.8819 0.0000 0.4714
vn 0.7730 0.0000 0.6344
vn 0.6344 0.0000 0.7730
vn 0.4714 0.0000 0.8819
vn 0.2903 0.0000 0.9569
vn 0.0980 0.0000 0.9952
usemtl None
s off
f 96/1/1 1/2/1 20/3/1 90/4/1
f 107/5/2 75/6/2 68/7/2 25/8/2 15/9/2 108/10/2 109/11/2 111/12/2 113/13/2 115/14/2 119/15/2 117/16/2 97/17/2 116/18/2 114/19/2 118/20/2 110/21/2 112/22/2 106/23/2
f 69/24/3 23/25/3 14/26/3 76/27/3
f 21/28/4 13/29/4 135/30/4 133/31/4 137/32/4 132/33/4 127/34/4 126/35/4
f 134/36/4 77/37/4 70/38/4 122/39/4 123/40/4 130/41/4 131/42/4 136/43/4
f 71/44/5 19/45/5 12/46/5 78/47/5
f 72/48/6 18/49/6 11/50/6 79/51/6
f 73/52/7 17/53/7 10/54/7 80/55/7
f 74/56/8 16/57/8 9/58/8 81/59/8
f 108/10/9 15/9/9 8/60/9 145/61/9 146/62/9 147/63/9 148/64/9 151/65/9
f 142/66/9 82/67/9 75/6/9 107/5/9 149/68/9 150/69/9 144/70/9 143/71/9
f 76/27/10 14/26/10 7/72/10 83/73/10
f 13/29/11 6/74/11 84/75/11 77/37/11 134/36/11 152/76/11 156/77/11 154/78/11 164/79/11 158/80/11 161/81/11 160/82/11 162/83/11 159/84/11 163/85/11 155/86/11 157/87/11 153/88/11 135/30/11
f 78/47/12 12/46/12 5/89/12 85/90/12
f 79/51/13 11/50/13 4/91/13 86/92/13
f 80/55/14 10/54/14 3/93/14 87/94/14
f 81/59/15 9/58/15 2/95/15 88/96/15
f 145/61/16 8/60/16 32/97/16 94/98/16 82/67/16 142/66/16 141/99/16 139/100/16 129/101/16 125/102/16 121/103/16 105/104/16 103/105/16 101/106/16 99/107/16 166/108/16 165/109/16
f 83/73/17 7/72/17 30/110/17 91/111/17
f 84/75/18 6/74/18 28/112/18 95/113/18
f 85/90/19 5/89/19 26/114/19 92/115/19
f 86/92/20 4/91/20 24/116/20 89/117/20
f 87/94/21 3/93/21 22/118/21 93/119/21
f 88/96/22 2/95/22 1/120/22 96/121/22
f 94/98/23 32/97/23 31/122/23 65/123/23
f 91/111/24 30/110/24 29/124/24 66/125/24
f 95/113/25 28/112/25 27/126/25 67/127/25
f 92/115/26 26/114/26 25/8/26 68/7/26
f 89/117/27 24/116/27 23/25/27 69/24/27
f 70/38/28 93/119/28 22/118/28 21/28/28 126/35/28 168/128/28 167/129/28 98/130/28 100/131/28 102/132/28 104/133/28 120/134/28 124/135/28 128/136/28 138/137/28 140/138/28 122/39/28
f 90/4/29 20/3/29 19/45/29 71/44/29
f 65/123/30 31/122/30 18/49/30 72/48/30
f 66/125/31 29/124/31 17/53/31 73/52/31
f 27/126/32 38/139/32 54/140/32 16/57/32
f 67/127/32 27/126/32 16/57/32 74/56/32
f 94/98/33 65/123/33 72/48/33 79/51/33 86/92/33 89/117/33 69/24/33 76/27/33 83/73/33 91/111/33 66/125/33 73/52/33 80/55/33 87/94/33 93/119/33 70/38/33 77/37/33 84/75/33 95/113/33 67/127/33 74/56/33 81/59/33 88/96/33 96/1/33 90/4/33 71/44/33 78/47/33 85/90/33 92/115/33 68/7/33 75/6/33 82/67/33
f 29/124/31 46/141/31 44/142/31 17/53/31
f 31/122/30 41/143/30 39/144/30 18/49/30
f 20/3/29 58/145/29 33/146/29 19/45/29
f 22/118/28 59/147/28 47/148/28 21/28/28
f 24/116/27 60/149/27 35/150/27 23/25/27
f 26/114/26 61/151/26 52/152/26 25/8/26
f 28/112/25 62/153/25 38/139/25 27/126/25
f 30/110/24 63/154/24 46/141/24 29/124/24
f 32/97/23 64/155/23 41/143/23 31/122/23
f 2/95/22 50/156/22 57/157/22 1/120/22
f 3/93/21 51/158/21 59/147/21 22/118/21
f 4/91/20 43/159/20 60/149/20 24/116/20
f 5/89/19 37/160/19 61/151/19 26/114/19
f 6/74/18 55/161/18 62/153/18 28/112/18
f 7/72/17 56/162/17 63/154/17 30/110/17
f 8/60/16 45/163/16 64/155/16 32/97/16
f 9/58/15 40/164/15 50/156/15 2/95/15
f 10/54/14 34/165/14 51/158/14 3/93/14
f 11/50/13 48/166/13 43/159/13 4/91/13
f 12/46/12 49/167/12 37/160/12 5/89/12
f 13/29/11 42/168/11 55/161/11 6/74/11
f 14/26/10 36/169/10 56/162/10 7/72/10
f 15/9/9 53/170/9 45/163/9 8/60/9
f 16/57/8 54/140/8 40/164/8 9/58/8
f 17/53/7 44/142/7 34/165/7 10/54/7
f 18/49/6 39/144/6 48/166/6 11/50/6
f 19/45/5 33/146/5 49/167/5 12/46/5
f 21/28/4 47/148/4 42/168/4 13/29/4
f 23/25/3 35/150/3 36/169/3 14/26/3
f 25/8/2 52/152/2 53/170/2 15/9/2
f 1/2/1 57/171/1 58/145/1 20/3/1
f 62/153/34 55/161/34 42/168/34 47/148/34 59/147/34 51/158/34 34/165/34 44/142/34 46/141/34 63/154/34 56/162/34 36/169/34 35/150/34 60/149/34 43/159/34 48/166/34 39/144/34 41/143/34 64/155/34 45/163/34 53/170/34 52/152/34 61/151/34 37/160/34 49/167/34 33/146/34 58/145/34 57/171/34 50/156/34 40/164/34 54/140/34 38/139/34
f 97/172/35 117/173/35 162/174/35 160/175/35
f 162/174/36 117/173/36 119/176/36 159/177/36
f 159/177/37 119/176/37 115/178/37 163/179/37
f 163/179/38 115/178/38 113/180/38 155/181/38
f 113/180/39 111/182/39 157/183/39 155/181/39
f 111/182/40 109/184/40 153/185/40 157/183/40
f 109/184/41 108/186/41 151/187/41 133/188/41 135/189/41 153/185/41
f 133/188/42 151/187/42 148/190/42 137/191/42
f 137/191/43 148/190/43 147/192/43 132/193/43
f 132/193/44 147/192/44 146/194/44 127/195/44
f 127/195/45 146/194/45 145/196/45 165/197/45 168/198/45 126/199/45
f 166/200/46 167/201/46 168/198/46 165/197/46
f 99/202/47 98/203/47 167/201/47 166/200/47
f 98/203/48 99/202/48 101/204/48 100/205/48
f 100/205/49 101/204/49 103/206/49 102/207/49
f 102/207/50 103/206/50 105/208/50 104/209/50
f 104/209/51 105/208/51 121/210/51 120/211/51
f 120/211/52 121/210/52 125/212/52 124/213/52
f 124/213/53 125/212/53 129/214/53 128/215/53
f 128/215/54 129/214/54 139/216/54 138/217/54
f 140/218/55 138/217/55 139/216/55 141/219/55
f 143/220/56 123/221/56 122/222/56 140/218/56 141/219/56 142/223/56
f 130/224/57 123/221/57 143/220/57 144/225/57
f 131/226/58 130/224/58 144/225/58 150/227/58
f 136/228/59 131/226/59 150/227/59 149/229/59
f 152/230/60 134/231/60 136/228/60 149/229/60 107/232/60 106/233/60
f 152/230/61 106/233/61 112/234/61 156/235/61
f 112/234/62 110/236/62 154/237/62 156/235/62
f 110/236/63 118/238/63 164/239/63 154/237/63
f 118/238/64 114/240/64 158/241/64 164/239/64
f 114/240/65 116/242/65 161/243/65 158/241/65
f 116/242/66 97/244/66 160/245/66 161/243/66
