# Blender v2.93.5 OBJ File: 'bigdet.blend'
# www.blender.org
mtllib box.mtl
o коробка_Cube.002
v -0.154971 -0.286678 1.501670
v -0.154971 0.286678 1.501670
v -0.130335 -0.285386 -1.501670
v -0.130335 0.249746 -1.501670
v 0.154971 -0.286678 1.501670
v 0.154971 0.286678 1.501670
v 0.130335 -0.285386 -1.501670
v 0.130335 0.249746 -1.501670
v -0.137412 0.315241 1.501670
v -0.137412 0.315241 -1.501670
v 0.137412 0.315241 -1.501670
v 0.137412 0.315241 1.501670
v -0.063929 0.346317 1.501670
v -0.063929 0.346317 -1.501670
v 0.063929 0.346317 -1.501670
v 0.063929 0.346317 1.501670
v -0.154971 0.286678 -1.501670
v 0.151676 -0.209995 -1.429957
v 0.154971 0.286678 -1.501670
v -0.130335 0.249746 1.499735
v -0.130335 -0.285386 1.499735
v 0.130335 -0.285386 1.499735
v 0.130335 0.249746 1.499735
v -0.154971 0.286678 -0.622437
v 0.151676 -0.209995 -0.930768
v 0.154971 0.286678 -0.622437
v -0.137412 0.315241 -0.622437
v 0.137412 0.315241 -0.622437
v -0.063929 0.346317 -0.622437
v 0.063929 0.346317 -0.622437
v 0.130335 0.249746 -0.623066
v -0.130335 0.249746 -0.623066
v -0.130335 -0.285386 -0.623066
v 0.130335 -0.285386 -0.623066
v 0.154971 0.286678 0.246449
v 0.137412 0.315241 0.246449
v 0.063929 0.346317 0.246449
v 0.130335 0.249746 0.245247
v 0.130335 -0.285386 0.245247
v -0.154971 0.286678 0.246449
v 0.151676 -0.209995 -0.088297
v -0.137412 0.315241 0.246449
v -0.063929 0.346317 0.246449
v -0.130335 0.249746 0.245247
v -0.130335 -0.285386 0.245247
v 0.151676 -0.134734 -1.429957
v 0.154971 0.171871 1.501670
v 0.130335 0.144740 -1.501670
v 0.130335 0.144740 1.499735
v 0.130335 0.144740 -0.623066
v 0.151676 -0.134734 -0.930768
v 0.130335 0.144740 0.245247
v 0.151676 -0.134734 -0.088297
v -0.154971 0.142028 1.501670
v -0.130335 0.114739 -1.501670
v -0.130335 0.114739 1.499735
v -0.130335 0.114739 -0.623066
v -0.130335 0.114739 0.245247
v 0.154971 0.171871 -1.501670
v 0.154971 -0.286678 -1.501670
v 0.154971 -0.286678 -0.622437
v 0.154971 -0.286678 0.246449
v 0.154971 0.171871 0.246449
v 0.154971 0.171871 -0.622437
v 0.133308 -0.134734 -1.429957
v 0.133308 -0.209995 -1.429957
v 0.133308 -0.209995 -0.930768
v 0.133308 -0.209995 -0.749321
v 0.133308 -0.134734 -0.749321
v 0.133308 -0.134734 -0.930768
v -0.154971 0.142028 -1.501670
v -0.154971 -0.286678 -1.501670
v -0.154971 -0.286678 -0.622437
v -0.154971 -0.286678 0.246449
v -0.154971 0.142028 0.246449
v -0.154971 0.142028 -0.622437
v -0.154971 0.142028 -1.501670
v -0.154971 -0.286678 -1.501670
v -0.154971 -0.286678 -0.622437
v -0.154971 -0.286678 0.246449
v -0.154971 0.142028 0.246449
v -0.154971 0.142028 -0.622437
v -0.154971 -0.129901 -1.431462
v -0.154971 -0.211075 -1.431462
v -0.154971 -0.211075 -1.019695
v -0.154971 -0.211075 -0.075017
v -0.154971 -0.129901 -0.075017
v -0.154971 -0.129901 -1.019695
v -0.131461 -0.129901 -1.431462
v -0.131461 -0.211075 -1.431462
v -0.131461 -0.211075 -1.019695
v -0.131461 -0.211075 -0.748433
v -0.131461 -0.129901 -0.748433
v -0.131461 -0.129901 -1.019695
vt 0.561929 0.168716
vt 0.625000 0.168716
vt 0.625000 0.250000
vt 0.561929 0.250000
vt 0.605128 0.269872
vt 0.605128 0.480128
vt 0.605128 0.480128
vt 0.605128 0.269872
vt 0.560897 0.655366
vt 0.625000 0.655366
vt 0.625000 0.750000
vt 0.560897 0.750000
vt 0.625000 0.500000
vt 0.625000 0.250000
vt 0.625000 0.500000
vt 0.625000 0.581284
vt 0.625000 0.500000
vt 0.625000 0.581284
vt 0.625000 0.581284
vt 0.625000 0.094634
vt 0.625000 0.000000
vt 0.625000 0.000000
vt 0.625000 0.094634
vt 0.625000 1.000000
vt 0.625000 0.750000
vt 0.625000 1.000000
vt 0.625000 0.655366
vt 0.875000 0.655366
vt 0.875000 0.750000
vt 0.625000 0.750000
vt 0.625000 0.000000
vt 0.625000 0.094634
vt 0.625000 1.000000
vt 0.625000 0.250000
vt 0.552084 0.269872
vt 0.394872 0.269872
vt 0.375000 0.250000
vt 0.375000 0.094634
vt 0.394872 0.269872
vt 0.394872 0.269872
vt 0.375000 0.000000
vt 0.605128 0.480128
vt 0.605128 0.269872
vt 0.551216 0.480128
vt 0.560897 0.500000
vt 0.551216 0.480128
vt 0.394872 0.480128
vt 0.375000 0.750000
vt 0.552084 0.269872
vt 0.552084 0.269872
vt 0.551216 0.480128
vt 0.394872 0.480128
vt 0.375000 0.581284
vt 0.394872 0.480128
vt 0.394872 0.480128
vt 0.375000 0.500000
vt 0.375000 0.655366
vt 0.397353 0.630318
vt 0.397353 0.579813
vt 0.397353 0.526285
vt 0.538544 0.526285
vt 0.605128 0.269872
vt 0.552084 0.269872
vt 0.394872 0.269872
vt 0.375000 0.168716
vt 0.625000 0.168716
vt 0.625000 0.168716
vt 0.875000 0.500000
vt 0.875000 0.581284
vt 0.560897 0.581284
vt 0.605128 0.480128
vt 0.561929 0.000000
vt 0.561929 0.094634
vt 0.625000 0.655366
vt 0.538544 0.630318
vt 0.551216 0.480128
vt 0.561929 0.747714
vt 0.538544 0.579813
vt 0.538544 0.630318
vt 0.538544 0.579813
vt 0.538544 0.526285
vt 0.397353 0.526285
vt 0.397353 0.579813
vt 0.397353 0.630318
vt 0.000000 0.000000
vt 0.000000 0.000000
vt 0.000000 0.000000
vt 0.000000 0.000000
vt 0.375000 0.168716
vt 0.375000 0.250000
vt 0.375000 0.094634
vt 0.561929 0.094634
vt 0.561929 0.168716
vt 0.561929 0.250000
vt 0.412852 0.134250
vt 0.524076 0.134250
vt 0.524076 0.134250
vt 0.412852 0.134250
vt 0.524076 0.208791
vt 0.412852 0.208791
vt 0.412852 0.208791
vt 0.524076 0.208791
vt 0.524076 0.170632
vt 0.000000 0.000000
vt 0.412852 0.170632
vt 0.412852 0.170632
vt 0.524076 0.170632
vt 0.000000 0.000000
vt 0.000000 0.000000
vn -1.0000 0.0000 0.0000
vn 0.0000 -1.0000 0.0000
vn 1.0000 0.0000 0.0000
vn 0.0000 0.0000 -1.0000
vn 0.3895 0.9210 0.0000
vn 0.8519 0.5237 0.0000
vn -0.8519 0.5237 0.0000
vn 0.0000 0.0000 1.0000
vn 0.0000 1.0000 0.0000
vn -0.3895 0.9210 0.0000
vn 0.0524 -0.9986 0.0000
vn -0.0783 0.0000 0.9969
vn -0.0524 -0.9986 0.0000
vn -0.9994 0.0329 0.0068
vn -1.0000 0.0000 -0.0030
vn -0.7403 0.6722 0.0000
vn 0.0783 0.0000 0.9969
vn 0.0035 -0.0331 0.9994
vn 0.7423 0.6701 0.0000
vn -0.0011 0.0110 -0.9999
vn 0.0006 -0.0057 1.0000
vn 0.9989 0.0000 0.0459
vn 0.9991 0.0429 0.0000
vn 1.0000 -0.0000 -0.0098
vn 0.9999 -0.0107 0.0000
vn -0.9999 -0.0106 0.0000
vn 0.9996 0.0000 -0.0278
vn -0.9994 0.0000 -0.0349
vn 1.0000 -0.0046 0.0000
vn 0.9999 0.0000 0.0160
vn 0.9999 0.0152 0.0000
vn 1.0000 0.0000 -0.0090
usemtl None
s off
f 76/1/1 24/2/1 17/3/1 71/4/1
f 44/5/2 38/6/2 23/7/2 20/8/2
f 63/9/3 35/10/3 6/11/3 47/12/3
f 19/13/4 17/3/4 10/14/4 11/15/4
f 28/16/5 11/15/5 15/17/5 30/18/5
f 26/19/6 19/13/6 11/15/6 28/16/6
f 40/20/7 2/21/7 9/22/7 42/23/7
f 2/24/8 6/11/8 12/25/8 9/26/8
f 37/27/9 43/28/9 13/29/9 16/30/9
f 42/23/10 9/22/10 13/31/10 43/32/10
f 9/26/8 12/25/8 16/30/8 13/33/8
f 11/15/4 10/14/4 14/34/4 15/17/4
f 55/35/4 3/36/4 72/37/4 71/4/4
f 74/38/11 45/39/11 21/40/11 1/41/11
f 8/42/4 4/43/4 17/3/4 19/13/4
f 48/44/4 8/42/4 19/13/4 59/45/4
f 47/12/12 49/46/12 22/47/12 5/48/12
f 58/49/3 44/5/3 20/8/3 56/50/3
f 52/51/1 39/52/1 22/47/1 49/46/1
f 61/53/13 34/54/13 7/55/13 60/56/13
f 62/57/13 39/52/13 34/54/13 61/53/13
f 48/44/14 7/55/14 34/54/14 39/52/14 68/58/14 67/59/14 66/60/14 65/61/14
f 55/35/3 4/43/3 32/62/3 57/63/3
f 72/37/11 3/36/11 33/64/11 73/65/11
f 10/14/10 27/66/10 29/67/10 14/34/10
f 15/17/9 14/68/9 29/69/9 30/18/9
f 17/3/7 24/2/7 27/66/7 10/14/7
f 59/45/3 19/13/3 26/19/3 64/70/3
f 4/43/2 8/42/2 31/71/2 32/62/2
f 54/72/1 2/21/1 40/20/1 75/73/1
f 12/25/5 36/74/5 37/27/5 16/30/5
f 6/11/6 35/10/6 36/74/6 12/25/6
f 5/48/13 22/47/13 39/52/13 62/57/13
f 69/75/15 68/58/15 39/52/15 52/51/15
f 63/9/16 64/70/16 50/76/16 52/51/16
f 73/65/11 33/64/11 45/39/11 74/38/11
f 8/42/1 48/44/1 50/76/1 31/71/1
f 38/6/1 52/51/1 49/46/1 23/7/1
f 54/77/17 1/41/17 21/40/17 56/50/17
f 7/55/4 48/44/4 59/45/4 60/56/4
f 62/57/3 63/9/3 47/12/3 5/48/3
f 2/24/18 54/77/18 56/50/18 20/8/18 23/7/18 49/46/18 47/12/18 6/11/18
f 33/64/3 57/63/3 58/49/3 45/39/3
f 1/41/1 54/72/1 75/73/1 74/38/1
f 45/39/3 58/49/3 56/50/3 21/40/3
f 4/43/4 55/35/4 71/4/4 17/3/4
f 57/63/19 76/1/19 75/73/19 58/49/19
f 63/9/20 52/51/20 38/6/20 44/5/20 58/49/20 75/73/20 40/20/20 42/23/20 43/28/20 37/27/20 36/74/20 35/10/20
f 64/70/21 26/19/21 28/16/21 30/18/21 29/69/21 27/66/21 24/2/21 76/1/21 57/63/21 32/62/21 31/71/21 50/76/21
f 51/78/2 53/79/2 69/75/2 70/80/2
f 46/81/22 18/82/22 60/56/22 59/45/22
f 18/82/23 25/83/23 61/53/23 60/56/23
f 25/83/23 41/84/23 62/57/23 61/53/23
f 41/84/24 53/79/24 63/9/24 62/57/24
f 53/79/25 51/78/25 64/70/25 63/9/25
f 51/78/25 46/81/25 59/45/25 64/70/25
f 69/75/26 52/51/26 50/76/26 48/44/26 65/61/26 70/80/26
f 41/84/9 25/83/9 67/59/9 68/58/9
f 18/82/8 46/81/8 65/61/8 66/60/8
f 46/81/2 51/78/2 70/80/2 65/61/2
f 53/79/27 41/84/27 68/58/27 69/75/27
f 25/83/9 18/82/9 66/60/9 67/59/9
f 78/85/8 77/86/8 71/87/8 72/88/8
f 79/89/8 78/90/8 72/37/8 73/65/8
f 80/91/8 79/89/8 73/65/8 74/38/8
f 81/92/8 80/91/8 74/38/8 75/73/8
f 82/93/8 81/92/8 75/73/8 76/1/8
f 77/94/8 82/93/8 76/1/8 71/4/8
f 86/95/28 87/96/28 93/97/28 92/98/28
f 83/99/8 84/100/8 90/101/8 89/102/8
f 55/35/29 57/63/29 93/97/29 94/103/29 89/102/29
f 3/36/30 55/35/30 89/102/30 90/101/30
f 3/36/31 90/101/31 92/104/31 33/64/31
f 84/100/9 85/105/9 86/95/9 92/98/9 91/106/9 90/101/9
f 88/107/2 83/99/2 89/102/2 94/103/2 93/97/2 87/96/2
f 33/64/32 92/104/32 93/97/32 57/63/32
f 79/89/1 80/91/1 81/92/1 82/93/1 87/96/1 86/95/1
f 79/89/1 86/95/1 84/108/1 78/90/1
f 82/93/1 77/94/1 83/109/1 87/96/1
f 78/90/1 84/108/1 83/99/1 77/94/1
